<?xml version="1.0" encoding="UTF-8" standalone="no"?>
<!-- Generator: Adobe Illustrator 16.0.0, SVG Export Plug-In . SVG Version: 6.00 Build 0)  -->

<svg
   xmlns:dc="http://purl.org/dc/elements/1.1/"
   xmlns:cc="http://creativecommons.org/ns#"
   xmlns:rdf="http://www.w3.org/1999/02/22-rdf-syntax-ns#"
   xmlns:svg="http://www.w3.org/2000/svg"
   xmlns="http://www.w3.org/2000/svg"
   xmlns:sodipodi="http://sodipodi.sourceforge.net/DTD/sodipodi-0.dtd"
   xmlns:inkscape="http://www.inkscape.org/namespaces/inkscape"
   version="1.1"
   id="Layer_1"
   x="0px"
   y="0px"
   width="48px"
   height="48px"
   viewBox="0 0 48 48"
   enable-background="new 0 0 48 48"
   xml:space="preserve"
   inkscape:version="0.48.2 r9819"
   sodipodi:docname="search104.svg"><metadata
   id="metadata3013"><rdf:RDF><cc:Work
       rdf:about=""><dc:format>image/svg+xml</dc:format><dc:type
         rdf:resource="http://purl.org/dc/dcmitype/StillImage" /></cc:Work></rdf:RDF></metadata><defs
   id="defs3011" /><sodipodi:namedview
   pagecolor="#ffffff"
   bordercolor="#666666"
   borderopacity="1"
   objecttolerance="10"
   gridtolerance="10"
   guidetolerance="10"
   inkscape:pageopacity="0"
   inkscape:pageshadow="2"
   inkscape:window-width="640"
   inkscape:window-height="480"
   id="namedview3009"
   showgrid="false"
   inkscape:zoom="4.9166667"
   inkscape:cx="24"
   inkscape:cy="24"
   inkscape:window-x="0"
   inkscape:window-y="0"
   inkscape:window-maximized="0"
   inkscape:current-layer="Layer_1" />
<g
   id="g3001"
   style="fill:#ffffff">
	<g
   id="g3003"
   style="fill:#ffffff">
		<path
   d="M22.499,11.799H11.301c-1.625,1.796-2.604,4.04-2.818,6.465h9.688c0.82,0,1.486,0.675,1.486,1.497    c0,0.821-0.666,1.496-1.486,1.496H8.608c0.183,1.044,0.51,2.049,0.971,2.993h8.592c0.82,0,1.486,0.675,1.486,1.496    s-0.666,1.496-1.486,1.496h-6.467c0.019,0.019,0.037,0.039,0.055,0.058c2.143,2.142,4.971,3.322,8,3.322    c2.078,0,4.11-0.555,5.787-1.594v-14.19C25.545,13.131,24.205,11.799,22.499,11.799z"
   id="path3005"
   style="fill:#ffffff" />
	</g>
	<path
   d="M45.763,38.589l-9.998-9.998c1.576-2.754,2.414-5.882,2.414-9.14c0-4.929-1.918-9.563-5.404-13.047   C29.291,2.919,24.658,1,19.729,1C14.8,1,10.166,2.919,6.682,6.406c-3.485,3.483-5.404,8.117-5.404,13.046s1.919,9.562,5.404,13.046   c3.484,3.486,8.118,5.404,13.047,5.404c3.685,0,7.203-1.072,10.201-3.069l9.793,9.794c0.834,0.833,1.926,1.25,3.019,1.25   c1.093,0,2.186-0.417,3.02-1.25C47.43,42.96,47.43,40.257,45.763,38.589z M29.858,29.58c-2.706,2.706-6.303,4.196-10.129,4.196   c-3.826,0-7.423-1.49-10.128-4.196c-2.706-2.705-4.195-6.302-4.195-10.128S6.894,12.028,9.6,9.323   c2.705-2.705,6.303-4.195,10.128-4.195c3.827,0,7.424,1.489,10.129,4.195C35.442,14.908,35.442,23.996,29.858,29.58z"
   id="path3007"
   style="fill:#ffffff" />
</g>
</svg>